HIERARCHY
ROOT mixamorig:Hips
{
	OFFSET 0.000000 201.639420 0.000000
	CHANNELS 6 Xposition Yposition Zposition Xrotation Yrotation Zrotation
	JOINT mixamorig:Spine
	{
		OFFSET 0.006200 19.524994 -2.481800
		CHANNELS 3 Xrotation Yrotation Zrotation
		JOINT mixamorig:Spine1
		{
			OFFSET -0.000900 22.835007 -2.825400
			CHANNELS 3 Xrotation Yrotation Zrotation
			JOINT mixamorig:Spine2
			{
				OFFSET -0.020600 26.552490 -3.193300
				CHANNELS 3 Xrotation Yrotation Zrotation
				JOINT mixamorig:Neck
				{
					OFFSET -0.060000 30.701813 1.352200
					CHANNELS 3 Xrotation Yrotation Zrotation
					JOINT mixamorig:Head
					{
						OFFSET -0.087200 22.547607 3.670900
						CHANNELS 3 Xrotation Yrotation Zrotation
						JOINT mixamorig:HeadTop_End
						{
							OFFSET -0.830600 40.355194 7.893500
							CHANNELS 3 Xrotation Yrotation Zrotation
							End Site
							{
								OFFSET 0.000000 30.592346 0.000000
							}
						}
						JOINT mixamorig:RightEye
						{
							OFFSET -6.302100 18.118591 16.197100
							CHANNELS 3 Xrotation Yrotation Zrotation
							End Site
							{
								OFFSET 0.000000 30.592346 0.000000
							}
						}
						JOINT mixamorig:LeftEye
						{
							OFFSET 6.741500 18.382690 16.401899
							CHANNELS 3 Xrotation Yrotation Zrotation
							End Site
							{
								OFFSET 0.000000 30.592346 0.000000
							}
						}
					}
				}
				JOINT mixamorig:LeftShoulder
				{
					OFFSET 11.924900 18.230499 1.425400
					CHANNELS 3 Xrotation Yrotation Zrotation
					JOINT mixamorig:LeftArm
					{
						OFFSET 25.435989 -0.697632 -5.229300
						CHANNELS 3 Xrotation Yrotation Zrotation
						JOINT mixamorig:LeftForeArm
						{
							OFFSET 54.684776 0.000000 0.000000
							CHANNELS 3 Xrotation Yrotation Zrotation
							JOINT mixamorig:LeftHand
							{
								OFFSET 55.098175 0.000000 0.000000
								CHANNELS 3 Xrotation Yrotation Zrotation
								JOINT mixamorig:LeftHandMiddle1
								{
									OFFSET 23.369751 0.000000 0.000000
									CHANNELS 3 Xrotation Yrotation Zrotation
									JOINT mixamorig:LeftHandMiddle2
									{
										OFFSET 6.378677 0.000000 0.000000
										CHANNELS 3 Xrotation Yrotation Zrotation
										JOINT mixamorig:LeftHandMiddle3
										{
											OFFSET 6.148331 0.000000 0.000000
											CHANNELS 3 Xrotation Yrotation Zrotation
											JOINT mixamorig:LeftHandMiddle4
											{
												OFFSET 6.582504 0.000000 0.000000
												CHANNELS 3 Xrotation Yrotation Zrotation
												End Site
												{
													OFFSET -1.168900 6.395691 1.028606
												}
											}
										}
									}
								}
								JOINT mixamorig:LeftHandThumb1
								{
									OFFSET 7.235672 -3.848206 5.434273
									CHANNELS 3 Xrotation Yrotation Zrotation
									JOINT mixamorig:LeftHandThumb2
									{
										OFFSET 6.568451 -3.792297 3.792300
										CHANNELS 3 Xrotation Yrotation Zrotation
										JOINT mixamorig:LeftHandThumb3
										{
											OFFSET 6.063080 -3.500519 3.500518
											CHANNELS 3 Xrotation Yrotation Zrotation
											JOINT mixamorig:LeftHandThumb4
											{
												OFFSET 4.793182 -2.767334 2.767349
												CHANNELS 3 Xrotation Yrotation Zrotation
												End Site
												{
													OFFSET 0.101639 6.054260 1.275483
												}
											}
										}
									}
								}
								JOINT mixamorig:LeftHandIndex1
								{
									OFFSET 23.101074 -0.309540 4.992809
									CHANNELS 3 Xrotation Yrotation Zrotation
									JOINT mixamorig:LeftHandIndex2
									{
										OFFSET 6.226883 0.000000 0.000000
										CHANNELS 3 Xrotation Yrotation Zrotation
										JOINT mixamorig:LeftHandIndex3
										{
											OFFSET 6.094330 0.000000 0.000000
											CHANNELS 3 Xrotation Yrotation Zrotation
											JOINT mixamorig:LeftHandIndex4
											{
												OFFSET 5.482605 0.000000 0.000000
												CHANNELS 3 Xrotation Yrotation Zrotation
												End Site
												{
													OFFSET -1.427902 5.233032 0.797164
												}
											}
										}
									}
								}
								JOINT mixamorig:LeftHandRing1
								{
									OFFSET 22.299240 0.021149 -3.964172
									CHANNELS 3 Xrotation Yrotation Zrotation
									JOINT mixamorig:LeftHandRing2
									{
										OFFSET 6.321869 0.000000 0.000000
										CHANNELS 3 Xrotation Yrotation Zrotation
										JOINT mixamorig:LeftHandRing3
										{
											OFFSET 5.899796 0.000000 0.000000
											CHANNELS 3 Xrotation Yrotation Zrotation
											JOINT mixamorig:LeftHandRing4
											{
												OFFSET 6.517899 0.000000 0.000000
												CHANNELS 3 Xrotation Yrotation Zrotation
												End Site
												{
													OFFSET -1.637299 6.232208 0.980890
												}
											}
										}
									}
								}
								JOINT mixamorig:LeftHandPinky1
								{
									OFFSET 20.463791 -0.302338 -8.562233
									CHANNELS 3 Xrotation Yrotation Zrotation
									JOINT mixamorig:LeftHandPinky2
									{
										OFFSET 6.908646 0.000000 0.000000
										CHANNELS 3 Xrotation Yrotation Zrotation
										JOINT mixamorig:LeftHandPinky3
										{
											OFFSET 4.622849 0.000000 0.000000
											CHANNELS 3 Xrotation Yrotation Zrotation
											JOINT mixamorig:LeftHandPinky4
											{
												OFFSET 5.216080 0.000000 0.000000
												CHANNELS 3 Xrotation Yrotation Zrotation
												End Site
												{
													OFFSET -0.606308 5.116241 0.814926
												}
											}
										}
									}
								}
							}
						}
					}
				}
				JOINT mixamorig:RightShoulder
				{
					OFFSET -12.001300 18.284088 1.348900
					CHANNELS 3 Xrotation Yrotation Zrotation
					JOINT mixamorig:RightArm
					{
						OFFSET -25.308500 -0.751312 -5.164599
						CHANNELS 3 Xrotation Yrotation Zrotation
						JOINT mixamorig:RightForeArm
						{
							OFFSET -54.684429 0.000000 0.000000
							CHANNELS 3 Xrotation Yrotation Zrotation
							JOINT mixamorig:RightHand
							{
								OFFSET -55.150291 0.000000 0.000000
								CHANNELS 3 Xrotation Yrotation Zrotation
								JOINT mixamorig:RightHandMiddle1
								{
									OFFSET -23.317566 0.000000 0.000000
									CHANNELS 3 Xrotation Yrotation Zrotation
									JOINT mixamorig:RightHandMiddle2
									{
										OFFSET -6.378403 0.000000 0.000000
										CHANNELS 3 Xrotation Yrotation Zrotation
										JOINT mixamorig:RightHandMiddle3
										{
											OFFSET -6.148193 0.000000 0.000000
											CHANNELS 3 Xrotation Yrotation Zrotation
											JOINT mixamorig:RightHandMiddle4
											{
												OFFSET -6.583389 0.000000 0.000000
												CHANNELS 3 Xrotation Yrotation Zrotation
												End Site
												{
													OFFSET 1.171692 6.395905 1.029786
												}
											}
										}
									}
								}
								JOINT mixamorig:RightHandThumb1
								{
									OFFSET -7.190521 -3.860474 5.435846
									CHANNELS 3 Xrotation Yrotation Zrotation
									JOINT mixamorig:RightHandThumb2
									{
										OFFSET -6.567429 -3.791718 3.791708
										CHANNELS 3 Xrotation Yrotation Zrotation
										JOINT mixamorig:RightHandThumb3
										{
											OFFSET -6.062469 -3.500153 3.500166
											CHANNELS 3 Xrotation Yrotation Zrotation
											JOINT mixamorig:RightHandThumb4
											{
												OFFSET -4.792618 -2.767029 2.767022
												CHANNELS 3 Xrotation Yrotation Zrotation
												End Site
												{
													OFFSET -0.100327 6.053253 1.276754
												}
											}
										}
									}
								}
								JOINT mixamorig:RightHandIndex1
								{
									OFFSET -23.048981 -0.310791 4.992554
									CHANNELS 3 Xrotation Yrotation Zrotation
									JOINT mixamorig:RightHandIndex2
									{
										OFFSET -6.227539 0.000000 0.000000
										CHANNELS 3 Xrotation Yrotation Zrotation
										JOINT mixamorig:RightHandIndex3
										{
											OFFSET -6.095047 0.000000 0.000000
											CHANNELS 3 Xrotation Yrotation Zrotation
											JOINT mixamorig:RightHandIndex4
											{
												OFFSET -5.484772 0.000000 0.000000
												CHANNELS 3 Xrotation Yrotation Zrotation
												End Site
												{
													OFFSET 1.420593 5.237305 0.797056
												}
											}
										}
									}
								}
								JOINT mixamorig:RightHandRing1
								{
									OFFSET -22.246323 0.020569 -3.963762
									CHANNELS 3 Xrotation Yrotation Zrotation
									JOINT mixamorig:RightHandRing2
									{
										OFFSET -6.322128 0.000000 0.000000
										CHANNELS 3 Xrotation Yrotation Zrotation
										JOINT mixamorig:RightHandRing3
										{
											OFFSET -5.900024 0.000000 0.000000
											CHANNELS 3 Xrotation Yrotation Zrotation
											JOINT mixamorig:RightHandRing4
											{
												OFFSET -6.518356 0.000000 0.000000
												CHANNELS 3 Xrotation Yrotation Zrotation
												End Site
												{
													OFFSET 1.636398 6.232697 0.982186
												}
											}
										}
									}
								}
								JOINT mixamorig:RightHandPinky1
								{
									OFFSET -20.411011 -0.303314 -8.561701
									CHANNELS 3 Xrotation Yrotation Zrotation
									JOINT mixamorig:RightHandPinky2
									{
										OFFSET -6.907349 0.000000 0.000000
										CHANNELS 3 Xrotation Yrotation Zrotation
										JOINT mixamorig:RightHandPinky3
										{
											OFFSET -4.623840 0.000000 0.000000
											CHANNELS 3 Xrotation Yrotation Zrotation
											JOINT mixamorig:RightHandPinky4
											{
												OFFSET -5.218353 0.000000 0.000000
												CHANNELS 3 Xrotation Yrotation Zrotation
												End Site
												{
													OFFSET 0.602097 5.118835 0.816273
												}
											}
										}
									}
								}
							}
						}
					}
				}
			}
		}
	}
	JOINT mixamorig:LeftUpLeg
	{
		OFFSET 18.168400 -13.561905 -0.039000
		CHANNELS 3 Xrotation Yrotation Zrotation
		JOINT mixamorig:LeftLeg
		{
			OFFSET 0.577358 -80.825211 -3.695000
			CHANNELS 3 Xrotation Yrotation Zrotation
			JOINT mixamorig:LeftFoot
			{
				OFFSET -0.577356 -83.370262 -6.520700
				CHANNELS 3 Xrotation Yrotation Zrotation
				JOINT mixamorig:LeftToeBase
				{
					OFFSET 0.750401 -20.798306 25.135401
					CHANNELS 3 Xrotation Yrotation Zrotation
					JOINT mixamorig:LeftToe_End
					{
						OFFSET -0.000500 0.001200 19.917799
						CHANNELS 3 Xrotation Yrotation Zrotation
						End Site
						{
							OFFSET 0.000000 19.917805 0.000000
						}
					}
				}
			}
		}
	}
	JOINT mixamorig:RightUpLeg
	{
		OFFSET -18.162500 -13.585098 -0.041000
		CHANNELS 3 Xrotation Yrotation Zrotation
		JOINT mixamorig:RightLeg
		{
			OFFSET -0.595024 -80.945297 -3.631900
			CHANNELS 3 Xrotation Yrotation Zrotation
			JOINT mixamorig:RightFoot
			{
				OFFSET 0.595024 -83.218193 -6.561200
				CHANNELS 3 Xrotation Yrotation Zrotation
				JOINT mixamorig:RightToeBase
				{
					OFFSET -0.753601 -20.807106 25.115000
					CHANNELS 3 Xrotation Yrotation Zrotation
					JOINT mixamorig:RightToe_End
					{
						OFFSET 0.000299 0.001700 19.918200
						CHANNELS 3 Xrotation Yrotation Zrotation
						End Site
						{
							OFFSET 0.000000 19.918203 0.000000
						}
					}
				}
			}
		}
	}
}
MOTION
Frames: 4
Frame Time: 0.033333
-5.356148 195.546005 -0.422072 45.725456 -85.774308 45.589225 1.600015 1.887634 2.346785 3.264082 3.616098 0.525106 3.230848 3.645937 0.523334 3.402308 7.715406 1.606742 -0.109023 45.526319 -18.584509 0.000000 0.000000 -0.000000 0.000000 0.000000 -0.000000 0.000000 0.000000 -0.000000 0.690959 0.681536 -5.992239 -40.026937 14.992043 -14.118156 0.000044 -64.691986 0.000040 10.981868 -15.395426 11.177371 5.905606 6.812011 -81.830003 5.909449 6.812559 -81.862460 1.673382 4.503932 -40.747153 -0.000002 -0.000000 0.000000 -0.948930 3.370673 -7.977318 6.595506 44.806721 2.990248 0.935575 19.959450 4.186599 0.000003 -0.000000 -0.000001 5.907533 6.812293 -81.846205 5.907532 6.812281 -81.846266 1.673380 4.503926 -40.747160 -0.000000 -0.000002 0.000002 5.907559 6.812309 -81.846205 5.907535 6.812294 -81.846266 1.673377 4.503924 -40.747160 0.000002 -0.000002 -0.000001 9.951794 7.387911 -81.835877 5.915032 2.726999 -81.936479 1.673387 4.503941 -40.747157 -0.000002 0.000003 0.000001 0.944954 -0.055871 10.701424 -60.551171 56.048959 81.928092 -0.000051 107.627218 0.000038 8.612897 -1.929212 -10.255661 6.620883 -6.940536 87.293062 6.620903 -6.940574 87.293089 1.909499 -4.790424 43.445590 -0.000001 0.000000 0.000002 -2.682076 2.829294 6.943604 8.791439 -57.006166 -2.287320 0.603502 -23.985584 -4.397426 -0.000002 -0.000000 -0.000000 6.620882 -6.940533 87.293062 6.620874 -6.940524 87.293103 1.909495 -4.790427 43.445600 -0.000000 0.000000 0.000003 6.620908 -6.940553 87.293069 6.620892 -6.940558 87.293103 1.909490 -4.790414 43.445590 -0.000001 -0.000001 0.000001 6.620910 -6.940527 87.293076 6.620896 -6.940538 87.293117 1.909486 -4.790410 43.445583 -0.000002 0.000000 -0.000001 -18.699485 16.007820 15.481071 18.378089 9.265536 3.708673 2.028257 12.582635 -15.049362 -0.000030 -0.000022 0.000005 -0.000000 -0.000000 0.000000 -22.609507 -14.473799 -11.044547 25.655039 -3.066928 -3.883127 -6.168853 -1.033225 9.900068 -0.172381 0.000000 0.000003 0.000000 0.000000 -0.000000 
-5.074493 195.371918 -0.305629 37.614887 -84.923109 37.445662 1.554866 1.853434 2.266815 3.167756 3.557090 0.512373 3.135722 3.585809 0.510719 3.443912 7.628636 1.644543 0.362251 45.131677 -18.691776 -0.000000 -0.000001 -0.000000 -0.000000 -0.000001 -0.000000 -0.000000 -0.000001 -0.000000 0.670277 0.612240 -5.615791 -39.700065 15.065768 -14.235019 0.000065 -65.072264 0.000062 10.822764 -14.500633 10.625500 5.905602 6.812008 -81.830003 5.909446 6.812562 -81.862460 1.673379 4.503932 -40.747153 -0.000001 -0.000003 0.000000 -0.948929 3.370677 -7.977315 6.595500 44.806717 2.990250 0.935574 19.959447 4.186597 -0.000002 0.000001 0.000001 5.907529 6.812293 -81.846211 5.907530 6.812289 -81.846266 1.673377 4.503925 -40.747160 -0.000001 -0.000003 -0.000004 5.907558 6.812310 -81.846205 5.907537 6.812295 -81.846273 1.673383 4.503925 -40.747153 -0.000001 -0.000003 0.000000 9.951790 7.387912 -81.835877 5.915035 2.726997 -81.936479 1.673382 4.503941 -40.747157 -0.000001 0.000002 0.000001 0.941355 -0.086588 10.694044 -60.380641 56.034138 81.533560 0.000084 107.608401 -0.000063 9.629819 -1.760815 -10.675760 6.620881 -6.940542 87.293062 6.620903 -6.940572 87.293089 1.909497 -4.790422 43.445590 -0.000001 -0.000000 -0.000001 -2.682077 2.829291 6.943603 8.791444 -57.006162 -2.287308 0.603502 -23.985586 -4.397422 0.000003 0.000000 0.000001 6.620881 -6.940535 87.293069 6.620875 -6.940527 87.293103 1.909493 -4.790425 43.445597 0.000001 -0.000001 0.000003 6.620904 -6.940557 87.293069 6.620890 -6.940556 87.293103 1.909496 -4.790414 43.445590 -0.000001 -0.000000 0.000004 6.620906 -6.940531 87.293076 6.620895 -6.940539 87.293110 1.909489 -4.790408 43.445587 -0.000001 -0.000000 0.000001 -19.694845 15.917317 15.676105 19.254064 8.937088 3.558743 1.835921 12.295371 -14.765412 -0.000057 0.000017 -0.000001 0.000000 -0.000000 0.000000 -22.643365 -14.391577 -11.176703 25.966134 -3.135175 -3.983034 -6.480003 -1.078165 10.186992 -0.074729 -0.000000 0.000001 0.000000 0.000000 0.000000 
-4.793149 195.200073 -0.193043 31.177846 -83.842539 30.882171 1.501375 1.812778 2.179383 3.054643 3.488442 0.490428 3.023893 3.516067 0.488889 3.445398 7.527658 1.716396 0.824003 44.677691 -18.731155 -0.000000 0.000001 -0.000000 -0.000000 0.000001 -0.000000 -0.000000 0.000001 -0.000000 0.649554 0.542481 -5.212380 -39.337761 15.108995 -14.364866 0.000076 -65.413050 0.000068 10.854793 -13.977150 10.172642 5.905602 6.812012 -81.830003 5.909447 6.812561 -81.862467 1.673377 4.503932 -40.747157 0.000001 0.000001 0.000003 -0.948929 3.370677 -7.977313 6.595503 44.806717 2.990250 0.935575 19.959450 4.186598 -0.000001 0.000002 0.000001 5.907528 6.812295 -81.846205 5.907529 6.812286 -81.846266 1.673383 4.503930 -40.747157 -0.000001 -0.000001 0.000002 5.907553 6.812308 -81.846205 5.907539 6.812296 -81.846266 1.673381 4.503929 -40.747157 -0.000001 0.000001 0.000001 9.951788 7.387912 -81.835877 5.915035 2.727002 -81.936486 1.673390 4.503941 -40.747157 -0.000001 0.000000 -0.000001 0.941106 -0.113428 10.698076 -60.160320 56.119245 80.965718 0.000038 107.738851 -0.000048 11.307313 -2.197220 -11.853717 6.620885 -6.940537 87.293062 6.620902 -6.940571 87.293089 1.909498 -4.790421 43.445597 -0.000001 -0.000001 0.000001 -2.682074 2.829293 6.943603 8.791445 -57.006169 -2.287308 0.603498 -23.985580 -4.397427 -0.000003 -0.000000 0.000000 6.620886 -6.940532 87.293062 6.620874 -6.940525 87.293110 1.909492 -4.790424 43.445594 -0.000000 -0.000001 -0.000002 6.620909 -6.940556 87.293069 6.620891 -6.940554 87.293103 1.909493 -4.790415 43.445594 -0.000001 -0.000002 0.000002 6.620909 -6.940530 87.293076 6.620895 -6.940537 87.293117 1.909485 -4.790407 43.445587 0.000000 0.000001 0.000002 -20.812488 15.827995 15.986953 20.155316 8.566234 3.382346 1.637349 11.836505 -14.427824 0.000025 0.000003 -0.000003 -0.000000 0.000000 -0.000000 -22.583536 -14.329242 -11.237410 26.194245 -3.379413 -4.014102 -6.768166 -1.120987 10.468165 -0.000004 -0.000002 -0.000001 -0.000000 -0.000002 -0.000000 
-4.561618 195.017090 -0.037827 26.185260 -82.564187 25.746393 1.445172 1.761333 2.092810 2.935845 3.401661 0.476406 2.906447 3.428076 0.474983 3.418770 7.436898 1.754649 1.329701 44.183278 -18.715632 0.000000 -0.000001 -0.000000 0.000000 -0.000001 -0.000000 0.000000 -0.000001 -0.000000 0.614339 0.567908 -4.903378 -38.898064 14.985932 -14.519234 0.000051 -65.651717 0.000047 11.113054 -13.760878 9.856907 5.905603 6.812006 -81.830003 5.909448 6.812564 -81.862467 1.673379 4.503931 -40.747153 -0.000000 0.000001 0.000001 -0.948925 3.370676 -7.977315 6.595500 44.806714 2.990250 0.935573 19.959450 4.186599 0.000000 0.000001 0.000000 5.907531 6.812289 -81.846205 5.907535 6.812289 -81.846273 1.673381 4.503930 -40.747157 -0.000001 0.000000 0.000002 5.907556 6.812307 -81.846211 5.907536 6.812296 -81.846273 1.673376 4.503922 -40.747157 -0.000000 0.000001 -0.000002 9.951789 7.387911 -81.835884 5.915033 2.727004 -81.936479 1.673385 4.503941 -40.747157 -0.000001 0.000003 -0.000000 0.938413 -0.151418 10.689168 -60.016954 56.328611 80.442840 0.000083 108.045615 -0.000052 13.216655 -3.400045 -13.363802 6.620884 -6.940539 87.293062 6.620904 -6.940573 87.293089 1.909497 -4.790422 43.445590 0.000002 0.000000 0.000004 -2.682075 2.829292 6.943605 8.791445 -57.006162 -2.287310 0.603503 -23.985579 -4.397423 0.000002 0.000001 -0.000000 6.620886 -6.940535 87.293062 6.620874 -6.940526 87.293103 1.909493 -4.790428 43.445597 -0.000002 -0.000000 0.000000 6.620908 -6.940556 87.293076 6.620891 -6.940555 87.293103 1.909491 -4.790414 43.445583 -0.000000 0.000000 0.000005 6.620910 -6.940530 87.293076 6.620894 -6.940539 87.293117 1.909484 -4.790407 43.445583 0.000000 -0.000000 0.000000 -21.973902 15.761800 16.297330 21.065031 8.171878 3.206345 1.402014 11.178651 -14.045114 -0.000032 -0.000014 0.000000 -0.000000 0.000000 0.000000 -22.470814 -14.331656 -11.350946 26.416966 -3.651341 -3.992702 -7.095780 -1.171185 10.761572 -0.000006 -0.000001 0.000005 0.000000 -0.000001 -0.000000 
